<svg xmlns="http://www.w3.org/2000/svg" xmlns:xlink="http://www.w3.org/1999/xlink" fill="#7d2be8" version="1.1" id="Capa_1" width="800px" height="800px" viewBox="0 0 420.76 420.76" xml:space="preserve">
<g>
	<g>
		<path d="M210.38,0C94.377,0,0.005,94.372,0.005,210.375c0,116.013,94.373,210.385,210.375,210.385    c116.003,0,210.375-94.372,210.375-210.385C420.765,94.372,326.392,0,210.38,0z M107.574,364.848    c-11.609-7.765-22.281-16.811-31.853-26.899c21.583-32.235,42.543-76.605,42.543-127.583c0-58.14-27.014-96.342-50.538-118.604    c8.807-10.576,18.781-20.148,29.711-28.544c29.424,28.257,62.07,75.658,62.07,147.157    C159.517,273.746,133.526,327.21,107.574,364.848z M349.858,332.68c-9.256,10.537-19.67,20.023-31.059,28.237    c-25.045-37.389-49.285-89.342-49.285-150.552c0-68.515,30.008-114.922,58.408-143.552c10.643,8.731,20.281,18.638,28.754,29.5    c-22.299,22.769-45.91,59.68-45.91,114.052C310.767,258.608,329.548,300.941,349.858,332.68z" fill="#7d2be8"/>
	</g>
</g>
</svg>